PathFileType	4	(x/y/z)	S10_PSF_T09
DataRate	CameraRate	NumFrames	NumMarkers	Units	OrigDataRate	OrigDataStartFrame	OrigNumFrames
240	240	7	51	mm	240	161	427
Frame#	Time	Sternum			R.Acromium			L.Acromium			Top.Head			R.ASIS			L.ASIS			R.PSIS			L.PSIS			R.Great.Tro			L.Great.Tro			R.Iliac.Crest			L.Iliac.Crest			V.Sacral			R.Thigh.Upper.Post			R.Thigh.Lower.Ant			R.Thigh.Lower.Post			R.Thigh.Upper.Ant			R.Knee.Lat			R.Knee.Med			R.Shank.Upper.Post			R.Shank.Lower.Ant			R.Shank.Lower.Post			R.Shank.Upper.Ant			R.Ankle.Lat			R.Ankle.Med			R.Heel.Upper			R.Heel.Med			R.Heel.Lat			R.Toe.Lat			R.Toe.Med			R.Toe.Tip			L.Thigh.Upper.Post			L.Thigh.Lower.Ant			L.Thigh.Lower.Post			L.Thigh.Upper.Ant			L.Knee.Lat			L.Knee.Med			L.Shank.Upper.Post			L.Shank.Lower.Ant			L.Shank.Lower.Post			L.Shank.Upper.Ant			L.Ankle.Lat			L.Ankle.Med			L.Heel.Upper			L.Heel.Med			L.Heel.Lat			L.Toe.Lat			L.Toe.Med			L.Toe.Tip			Cervical.Spine			Back			
		X1	Y1	Z1	X2	Y2	Z2	X3	Y3	Z3	X4	Y4	Z4	X5	Y5	Z5	X6	Y6	Z6	X7	Y7	Z7	X8	Y8	Z8	X9	Y9	Z9	X10	Y10	Z10	X11	Y11	Z11	X12	Y12	Z12	X13	Y13	Z13	X14	Y14	Z14	X15	Y15	Z15	X16	Y16	Z16	X17	Y17	Z17	X18	Y18	Z18	X19	Y19	Z19	X20	Y20	Z20	X21	Y21	Z21	X22	Y22	Z22	X23	Y23	Z23	X24	Y24	Z24	X25	Y25	Z25	X26	Y26	Z26	X27	Y27	Z27	X28	Y28	Z28	X29	Y29	Z29	X30	Y30	Z30	X31	Y31	Z31	X32	Y32	Z32	X33	Y33	Z33	X34	Y34	Z34	X35	Y35	Z35	X36	Y36	Z36	X37	Y37	Z37	X38	Y38	Z38	X39	Y39	Z39	X40	Y40	Z40	X41	Y41	Z41	X42	Y42	Z42	X43	Y43	Z43	X44	Y44	Z44	X45	Y45	Z45	X46	Y46	Z46	X47	Y47	Z47	X48	Y48	Z48	X49	Y49	Z49	X50	Y50	Z50	X51	Y51	Z51	

161	0.66667	-570.06	1258.2	340.68	-716.05	1401.1	486.96	-678.48	1446	190.03	-746.2	1727.9	362.2	-620.99	997.85	431.83	-622.01	994.25	201.63	-824.2	1005.1	345.39	-817.3	1007.8	264.66	-678.12	925.43	507.98	-690.85	921.49	148.97	-720.41	1074.6	474.15	-693.36	1070	174.2	-842.17	971.75	310.15	-596.06	725.06	500.24	-522.87	669.36	455.21	-575.05	638.4	488.32	-543.7	758.05	461.32	-542.22	518.35	443.19	-557.78	525.38	317.67	-596.88	288.41	446.95	-530.72	228.68	426.25	-592.6	214.28	440.19	-528.71	305.84	431.78	-575.56	109.43	417.01	-566.94	120.83	338.66	-638.14	64.881	371.41	-627.53	36.368	345.18	-632.45	40.672	406.2	-461.05	40.637	453.9	-429.56	45.28	345.14	-372.73	62.433	388.91	-758.88	649.02	167.43	-692.11	561.12	174.82	-764.94	554.46	185.68	-680.41	649.33	155.95	-752.49	473.52	180.48	-716.24	451.17	304.61	-942.12	381.39	181.86	-967.08	272.46	178.93	-999.91	328.51	186.84	-909.48	325.37	174.94	-1077	225.17	188.3	-1056.1	213.76	271.98	-1122.1	265.46	236.07	-1143.3	243.31	270.9	-1150.5	249.87	207.27	-1099.6	85.809	162.91	-1072.1	66.039	268.52	-1038.6	36.284	220.76	-779.44	1474	339.1	-855.33	1266.4	302.12
162	0.67083	-564.66	1259.2	340.87	-710.12	1402.1	487.62	-673.87	1446.8	190.43	-740.74	1728.8	362.82	-615.3	998.36	432.35	-617.02	994.92	202.06	-818.77	1005.8	346.55	-812.17	1008.5	265.79	-672.38	926.02	508.79	-685.9	921.95	149.86	-714.45	1075.2	475.03	-688.58	1070.6	174.84	-836.92	972.45	311.41	-591.79	725.19	500.87	-518.92	668.97	455.93	-571.4	638.38	488.95	-539.12	757.82	462.06	-539.43	518.01	443.67	-555.02	525.23	318.24	-595.58	288.5	447.11	-529.77	228.35	426.53	-591.8	214.34	440.28	-527.25	305.48	432.16	-575.39	109.44	417.01	-566.61	120.93	338.68	-638.19	64.879	371.43	-627.53	36.367	345.2	-632.44	40.652	406.21	-461.05	40.645	453.93	-429.55	45.229	345.1	-372.72	62.342	388.9	-750.9	648.45	167.81	-683.02	561.32	174.37	-755.69	553.79	185.85	-672.5	649.7	155.64	-742.16	473.47	180.3	-704.59	450.59	304.19	-931.7	383.32	182.27	-957.83	274.7	178.93	-990.09	331.1	187.2	-899.74	326.98	175	-1067.9	228.55	188.44	-1047.3	216.78	272.31	-1111.6	269.93	236.3	-1133.6	248.35	271.16	-1140.5	255.19	207.48	-1093.9	89.166	163.05	-1066.8	68.335	268.68	-1034.5	36.494	220.55	-774.13	1474.8	339.97	-849.97	1267.1	303.44
163	0.675	-559.28	1260.2	341	-704.17	1403.1	488.28	-669.3	1447.6	190.81	-735.3	1729.7	363.42	-609.65	998.84	432.84	-612.08	995.58	202.47	-813.38	1006.5	347.71	-807.07	1009.1	266.93	-666.69	926.61	509.6	-681.01	922.42	150.71	-708.51	1075.9	475.88	-683.76	1071.2	175.46	-831.7	973.16	312.68	-587.6	725.31	501.49	-515.08	668.56	456.64	-567.85	638.34	489.56	-534.64	757.58	462.78	-536.73	517.67	444.14	-552.52	525.06	318.8	-594.34	288.58	447.27	-528.86	228.02	426.82	-591.04	214.4	440.38	-525.85	305.12	432.53	-575.22	109.45	417.02	-566.3	121.02	338.7	-638.22	64.878	371.45	-627.53	36.369	345.21	-632.43	40.632	406.21	-461.04	40.644	453.95	-429.54	45.179	345.06	-372.71	62.255	388.88	-742.97	647.98	168.17	-673.97	561.64	173.87	-746.47	553.25	185.99	-664.68	650.17	155.29	-731.84	473.53	180.09	-693	450.21	303.79	-921.19	385.25	182.65	-948.44	276.92	178.97	-980.15	333.65	187.56	-889.89	328.6	175.07	-1058.7	231.87	188.63	-1038.3	219.77	272.69	-1101.2	274.19	236.59	-1123.7	253.12	271.46	-1130.4	260.25	207.73	-1087.7	92.524	163.18	-1061	70.674	268.83	-1029.9	36.888	220.33	-768.82	1475.5	340.85	-844.63	1267.7	304.8
164	0.67917	-553.94	1261.1	341.07	-698.2	1404	488.92	-664.77	1448.3	191.17	-729.87	1730.5	363.99	-604.02	999.31	433.28	-607.17	996.22	202.85	-808.02	1007.3	348.88	-802.01	1009.7	268.07	-661.05	927.19	510.39	-676.17	922.91	151.53	-702.6	1076.5	476.72	-678.89	1071.7	176.06	-826.52	973.87	313.95	-583.49	725.42	502.08	-511.33	668.13	457.32	-564.39	638.3	490.17	-530.24	757.32	463.48	-534.11	517.34	444.6	-550.26	524.85	319.35	-593.14	288.65	447.45	-528	227.7	427.11	-590.3	214.46	440.48	-524.51	304.77	432.91	-575.05	109.46	417.05	-566.01	121.11	338.73	-638.24	64.877	371.47	-627.53	36.375	345.22	-632.42	40.613	406.22	-461.04	40.637	453.98	-429.52	45.13	345.03	-372.7	62.17	388.87	-735.09	647.61	168.52	-664.98	562.09	173.34	-737.3	552.83	186.13	-656.92	650.73	154.92	-721.52	473.73	179.87	-681.5	450.02	303.41	-910.62	387.16	183.02	-938.91	279.12	179.06	-970.11	336.16	187.93	-879.95	330.23	175.16	-1049.3	235.11	188.88	-1029.1	222.72	273.09	-1090.7	278.23	236.95	-1113.8	257.61	271.81	-1120.1	265.03	208.03	-1081	95.858	163.31	-1054.7	73.035	268.94	-1024.7	37.477	220.09	-763.51	1476.3	341.73	-839.33	1268.4	306.19
165	0.68333	-548.63	1262.1	341.08	-692.2	1405	489.55	-660.28	1449.1	191.5	-724.44	1731.4	364.54	-598.43	999.76	433.7	-602.3	996.84	203.2	-802.71	1008	350.04	-796.98	1010.4	269.21	-655.46	927.78	511.16	-671.38	923.42	152.32	-696.72	1077.2	477.53	-673.98	1072.2	176.65	-821.38	974.59	315.22	-579.47	725.52	502.66	-507.67	667.69	457.98	-561.02	638.25	490.76	-525.93	757.06	464.16	-531.55	517.01	445.04	-548.22	524.64	319.89	-591.98	288.71	447.63	-527.17	227.4	427.38	-589.59	214.51	440.58	-523.22	304.42	433.27	-574.89	109.46	417.08	-565.73	121.21	338.76	-638.25	64.876	371.49	-627.53	36.384	345.24	-632.42	40.595	406.23	-461.03	40.625	454.01	-429.51	45.084	345	-372.69	62.087	388.86	-727.26	647.34	168.85	-656.02	562.66	172.78	-728.17	552.54	186.26	-649.23	651.4	154.52	-711.2	474.05	179.63	-670.09	450.03	303.06	-900	389.07	183.36	-929.27	281.3	179.19	-959.98	338.62	188.32	-869.92	331.87	175.25	-1039.8	238.26	189.2	-1019.8	225.59	273.52	-1080.2	282.03	237.39	-1103.8	261.78	272.22	-1109.9	269.51	208.39	-1073.8	99.143	163.43	-1047.9	75.399	269.03	-1018.8	38.267	219.83	-758.2	1477.1	342.61	-834.05	1269.1	307.6
166	0.6875	-543.34	1263	341.03	-686.18	1405.9	490.17	-655.82	1449.8	191.81	-719.03	1732.3	365.07	-592.87	1000.2	434.08	-597.47	997.46	203.52	-797.43	1008.7	351.19	-791.98	1011	270.35	-649.93	928.36	511.91	-666.64	923.95	153.08	-690.89	1077.8	478.31	-669.02	1072.7	177.22	-816.28	975.32	316.49	-575.52	725.62	503.21	-504.09	667.26	458.6	-557.73	638.21	491.33	-521.7	756.8	464.81	-529.04	516.7	445.47	-546.35	524.42	320.41	-590.85	288.77	447.81	-526.37	227.1	427.65	-588.91	214.56	440.7	-521.98	304.09	433.63	-574.72	109.47	417.12	-565.47	121.3	338.79	-638.24	64.876	371.51	-627.53	36.397	345.25	-632.42	40.579	406.24	-461.03	40.607	454.04	-429.5	45.041	344.98	-372.68	62.006	388.86	-719.48	647.18	169.17	-647.11	563.37	172.18	-719.07	552.37	186.38	-641.6	652.18	154.12	-700.88	474.51	179.37	-658.77	450.25	302.73	-889.35	390.96	183.7	-919.51	283.46	179.36	-949.77	341.03	188.72	-859.82	333.52	175.35	-1030.2	241.3	189.59	-1010.2	228.37	273.98	-1069.7	285.57	237.9	-1093.7	265.62	272.7	-1099.6	273.67	208.81	-1066.2	102.36	163.55	-1040.6	77.743	269.09	-1012.3	39.255	219.55	-752.89	1477.9	343.5	-828.79	1269.8	309.04
167	0.69167	-538.08	1263.8	340.93	-680.14	1406.9	490.77	-651.38	1450.5	192.11	-713.63	1733.2	365.58	-587.35	1000.7	434.44	-592.66	998.07	203.83	-792.18	1009.5	352.34	-787	1011.7	271.47	-644.46	928.95	512.64	-661.93	924.52	153.8	-685.11	1078.5	479.06	-664.01	1073.2	177.78	-811.21	976.06	317.74	-571.64	725.72	503.74	-500.59	666.83	459.2	-554.51	638.17	491.88	-517.54	756.53	465.43	-526.59	516.41	445.87	-544.64	524.2	320.91	-589.76	288.82	448.01	-525.6	226.82	427.9	-588.23	214.61	440.82	-520.78	303.77	433.96	-574.57	109.48	417.17	-565.22	121.39	338.82	-638.22	64.876	371.53	-627.53	36.415	345.27	-632.42	40.565	406.25	-461.03	40.586	454.07	-429.49	45.001	344.95	-372.67	61.927	388.85	-711.73	647.13	169.48	-638.22	564.21	171.55	-710.01	552.34	186.51	-634.02	653.06	153.7	-690.56	475.09	179.09	-647.56	450.66	302.42	-878.69	392.83	184.03	-909.64	285.58	179.57	-939.49	343.37	189.14	-849.65	335.18	175.46	-1020.5	244.23	190.05	-1000.5	231.05	274.46	-1059.3	288.86	238.51	-1083.6	269.12	273.25	-1089.3	277.5	209.33	-1058	105.47	163.66	-1032.7	80.045	269.11	-1005.2	40.428	219.24	-747.58	1478.7	344.39	-823.57	1270.6	310.5
